<svg width="26" height="26" viewBox="0 0 26 26" fill="none" xmlns="http://www.w3.org/2000/svg">
<path d="M12.293 15.9293C12.6835 15.5388 13.3167 15.5388 13.7072 15.9293L23.4041 25.6262C23.7946 26.0167 24.4278 26.0167 24.8183 25.6262L25.6263 24.8182C26.0168 24.4277 26.0168 23.7945 25.6263 23.404L15.9294 13.7071C15.5389 13.3165 15.5389 12.6834 15.9294 12.2929L25.6263 2.59596C26.0168 2.20543 26.0168 1.57227 25.6263 1.18174L24.8183 0.373732C24.4278 -0.0167922 23.7946 -0.0167915 23.4041 0.373733L13.7072 10.0706C13.3167 10.4612 12.6835 10.4612 12.293 10.0706L2.59608 0.373733C2.20555 -0.0167911 1.57239 -0.0167915 1.18186 0.373733L0.373854 1.18174C-0.0166701 1.57227 -0.0166694 2.20543 0.373855 2.59596L10.0708 12.2929C10.4613 12.6834 10.4613 13.3165 10.0708 13.7071L0.373855 23.404C-0.0166691 23.7945 -0.0166694 24.4277 0.373855 24.8182L1.18186 25.6262C1.57239 26.0167 2.20555 26.0167 2.59608 25.6262L12.293 15.9293Z" fill="#666666"/>
</svg>
